<mxfile host="app.diagrams.net" modified="2024-02-25T01:46:01.097Z" agent="Mozilla/5.0 (Macintosh; Intel Mac OS X 10_15_7) AppleWebKit/537.36 (KHTML, like Gecko) Chrome/120.0.0.0 Safari/537.36" etag="FR-kRPYa-6kXbTMyMFc-" version="22.1.18" type="github">
  <diagram id="9fnjXT7nlAm7Ix4f8WDv" name="Page-1">
    <mxGraphModel dx="1572" dy="1270" grid="0" gridSize="10" guides="1" tooltips="1" connect="1" arrows="1" fold="1" page="1" pageScale="1" pageWidth="1200" pageHeight="500" background="#EFF1F3" math="0" shadow="0">
      <root>
        <mxCell id="0" />
        <mxCell id="1" parent="0" />
        <mxCell id="29xvhFVCt6-CDgxXpiSG-1" value="" style="rounded=1;whiteSpace=wrap;html=1;fillColor=none;strokeWidth=3;strokeColor=#4A909B;dashed=1;" parent="1" vertex="1">
          <mxGeometry x="348" y="75" width="667.5" height="133.5" as="geometry" />
        </mxCell>
        <mxCell id="29xvhFVCt6-CDgxXpiSG-2" value="&lt;font style=&quot;font-size: 28px;&quot;&gt;0&lt;/font&gt;" style="rounded=1;whiteSpace=wrap;html=1;fillColor=#6DB5A8;fontColor=#F8F8F8;strokeColor=default;" parent="1" vertex="1">
          <mxGeometry x="360" y="132" width="64" height="38" as="geometry" />
        </mxCell>
        <mxCell id="29xvhFVCt6-CDgxXpiSG-3" value="&lt;font style=&quot;font-size: 17px;&quot;&gt;0&lt;/font&gt;" style="text;html=1;strokeColor=none;fillColor=none;align=center;verticalAlign=middle;whiteSpace=wrap;rounded=0;fontColor=#EA6B66;" parent="1" vertex="1">
          <mxGeometry x="362" y="174.25" width="60" height="30" as="geometry" />
        </mxCell>
        <mxCell id="29xvhFVCt6-CDgxXpiSG-4" value="&lt;font style=&quot;font-size: 23px;&quot; color=&quot;#4a909b&quot;&gt;index:&lt;/font&gt;" style="text;html=1;strokeColor=none;fillColor=none;align=center;verticalAlign=middle;whiteSpace=wrap;rounded=0;" parent="1" vertex="1">
          <mxGeometry x="280" y="174.25" width="60" height="30" as="geometry" />
        </mxCell>
        <mxCell id="ZSMxuf6t_GAMlq6oe9wS-11" style="edgeStyle=orthogonalEdgeStyle;rounded=0;orthogonalLoop=1;jettySize=auto;html=1;exitX=0;exitY=1;exitDx=0;exitDy=0;entryX=0;entryY=0;entryDx=0;entryDy=0;curved=1;strokeColor=#545F82;strokeWidth=3;" edge="1" parent="1" source="29xvhFVCt6-CDgxXpiSG-5" target="ZSMxuf6t_GAMlq6oe9wS-3">
          <mxGeometry relative="1" as="geometry" />
        </mxCell>
        <mxCell id="29xvhFVCt6-CDgxXpiSG-5" value="&lt;font style=&quot;font-size: 28px;&quot;&gt;1&lt;/font&gt;" style="rounded=1;whiteSpace=wrap;html=1;fillColor=#545f82;fontColor=#F8F8F8;strokeColor=default;" parent="1" vertex="1">
          <mxGeometry x="424" y="132" width="64" height="38" as="geometry" />
        </mxCell>
        <mxCell id="29xvhFVCt6-CDgxXpiSG-6" value="&lt;font style=&quot;font-size: 17px;&quot;&gt;1&lt;/font&gt;" style="text;html=1;strokeColor=none;fillColor=none;align=center;verticalAlign=middle;whiteSpace=wrap;rounded=0;fontColor=#EA6B66;" parent="1" vertex="1">
          <mxGeometry x="426" y="174.25" width="60" height="30" as="geometry" />
        </mxCell>
        <mxCell id="29xvhFVCt6-CDgxXpiSG-7" value="&lt;font style=&quot;font-size: 28px;&quot;&gt;0&lt;/font&gt;" style="rounded=1;whiteSpace=wrap;html=1;fillColor=#545f82;fontColor=#F8F8F8;strokeColor=default;" parent="1" vertex="1">
          <mxGeometry x="488" y="132" width="64" height="38" as="geometry" />
        </mxCell>
        <mxCell id="29xvhFVCt6-CDgxXpiSG-8" value="&lt;font style=&quot;font-size: 17px;&quot;&gt;2&lt;/font&gt;" style="text;html=1;strokeColor=none;fillColor=none;align=center;verticalAlign=middle;whiteSpace=wrap;rounded=0;fontColor=#EA6B66;" parent="1" vertex="1">
          <mxGeometry x="490" y="174.25" width="60" height="30" as="geometry" />
        </mxCell>
        <mxCell id="29xvhFVCt6-CDgxXpiSG-9" value="&lt;font style=&quot;font-size: 28px;&quot;&gt;...&lt;/font&gt;" style="rounded=1;whiteSpace=wrap;html=1;fillColor=#6DB5A8;fontColor=#F8F8F8;strokeColor=default;" parent="1" vertex="1">
          <mxGeometry x="552" y="132" width="64" height="38" as="geometry" />
        </mxCell>
        <mxCell id="29xvhFVCt6-CDgxXpiSG-10" value="&lt;font style=&quot;font-size: 17px;&quot;&gt;...&lt;/font&gt;" style="text;html=1;strokeColor=none;fillColor=none;align=center;verticalAlign=middle;whiteSpace=wrap;rounded=0;fontColor=#EA6B66;" parent="1" vertex="1">
          <mxGeometry x="554" y="174.25" width="60" height="30" as="geometry" />
        </mxCell>
        <mxCell id="29xvhFVCt6-CDgxXpiSG-11" value="&lt;font style=&quot;font-size: 28px;&quot;&gt;...&lt;/font&gt;" style="rounded=1;whiteSpace=wrap;html=1;fillColor=#6DB5A8;fontColor=#F8F8F8;strokeColor=default;" parent="1" vertex="1">
          <mxGeometry x="616" y="132" width="64" height="38" as="geometry" />
        </mxCell>
        <mxCell id="29xvhFVCt6-CDgxXpiSG-12" value="&lt;font style=&quot;font-size: 17px;&quot;&gt;...&lt;/font&gt;" style="text;html=1;strokeColor=none;fillColor=none;align=center;verticalAlign=middle;whiteSpace=wrap;rounded=0;fontColor=#EA6B66;" parent="1" vertex="1">
          <mxGeometry x="618" y="174.25" width="60" height="30" as="geometry" />
        </mxCell>
        <mxCell id="29xvhFVCt6-CDgxXpiSG-13" value="&lt;font style=&quot;font-size: 28px;&quot;&gt;...&lt;/font&gt;" style="rounded=1;whiteSpace=wrap;html=1;fillColor=#6DB5A8;fontColor=#F8F8F8;strokeColor=default;" parent="1" vertex="1">
          <mxGeometry x="680" y="132" width="64" height="38" as="geometry" />
        </mxCell>
        <mxCell id="29xvhFVCt6-CDgxXpiSG-14" value="&lt;font style=&quot;font-size: 17px;&quot;&gt;...&lt;/font&gt;" style="text;html=1;strokeColor=none;fillColor=none;align=center;verticalAlign=middle;whiteSpace=wrap;rounded=0;fontColor=#EA6B66;" parent="1" vertex="1">
          <mxGeometry x="682" y="174.25" width="60" height="30" as="geometry" />
        </mxCell>
        <mxCell id="29xvhFVCt6-CDgxXpiSG-15" value="" style="shape=curlyBracket;whiteSpace=wrap;html=1;rounded=1;labelPosition=left;verticalLabelPosition=middle;align=right;verticalAlign=middle;rotation=90;strokeWidth=3;strokeColor=#545f82;" parent="1" vertex="1">
          <mxGeometry x="485" y="44" width="20" height="142" as="geometry" />
        </mxCell>
        <mxCell id="ZSMxuf6t_GAMlq6oe9wS-12" style="edgeStyle=orthogonalEdgeStyle;rounded=0;orthogonalLoop=1;jettySize=auto;html=1;exitX=1;exitY=1;exitDx=0;exitDy=0;entryX=1;entryY=0;entryDx=0;entryDy=0;curved=1;strokeWidth=3;strokeColor=#545F82;" edge="1" parent="1" source="29xvhFVCt6-CDgxXpiSG-16" target="ZSMxuf6t_GAMlq6oe9wS-8">
          <mxGeometry relative="1" as="geometry" />
        </mxCell>
        <mxCell id="29xvhFVCt6-CDgxXpiSG-16" value="" style="rounded=1;whiteSpace=wrap;html=1;fillColor=#545f82;fontColor=#F8F8F8;strokeColor=none;arcSize=30;" parent="1" vertex="1">
          <mxGeometry x="552" y="132.5" width="16" height="37" as="geometry" />
        </mxCell>
        <mxCell id="29xvhFVCt6-CDgxXpiSG-17" value="&lt;font color=&quot;#545f82&quot; style=&quot;font-size: 24px;&quot;&gt;value1&lt;/font&gt;" style="text;html=1;strokeColor=none;fillColor=none;align=center;verticalAlign=middle;whiteSpace=wrap;rounded=0;" parent="1" vertex="1">
          <mxGeometry x="466" y="74" width="60" height="30" as="geometry" />
        </mxCell>
        <mxCell id="29xvhFVCt6-CDgxXpiSG-18" value="&lt;font color=&quot;#4a909b&quot;&gt;&lt;span style=&quot;font-size: 27px;&quot;&gt;ringbuf&lt;/span&gt;&lt;/font&gt;" style="text;html=1;strokeColor=none;fillColor=none;align=center;verticalAlign=middle;whiteSpace=wrap;rounded=0;" parent="1" vertex="1">
          <mxGeometry x="582" y="38" width="180.5" height="30" as="geometry" />
        </mxCell>
        <mxCell id="29xvhFVCt6-CDgxXpiSG-21" value="&lt;font style=&quot;font-size: 28px;&quot;&gt;0&lt;/font&gt;" style="rounded=1;whiteSpace=wrap;html=1;fillColor=#6DB5A8;fontColor=#F8F8F8;strokeColor=default;" parent="1" vertex="1">
          <mxGeometry x="872" y="132" width="64" height="38" as="geometry" />
        </mxCell>
        <mxCell id="29xvhFVCt6-CDgxXpiSG-22" value="&lt;font style=&quot;font-size: 17px;&quot;&gt;len-2&lt;/font&gt;" style="text;html=1;strokeColor=none;fillColor=none;align=center;verticalAlign=middle;whiteSpace=wrap;rounded=0;fontColor=#EA6B66;" parent="1" vertex="1">
          <mxGeometry x="874" y="174.25" width="60" height="30" as="geometry" />
        </mxCell>
        <mxCell id="29xvhFVCt6-CDgxXpiSG-23" value="&lt;font style=&quot;font-size: 28px;&quot;&gt;0&lt;/font&gt;" style="rounded=1;whiteSpace=wrap;html=1;fillColor=#6DB5A8;fontColor=#F8F8F8;strokeColor=default;" parent="1" vertex="1">
          <mxGeometry x="936" y="132" width="64" height="38" as="geometry" />
        </mxCell>
        <mxCell id="29xvhFVCt6-CDgxXpiSG-24" value="&lt;font style=&quot;font-size: 17px;&quot;&gt;len-1&lt;/font&gt;" style="text;html=1;strokeColor=none;fillColor=none;align=center;verticalAlign=middle;whiteSpace=wrap;rounded=0;fontColor=#EA6B66;" parent="1" vertex="1">
          <mxGeometry x="938" y="174.25" width="60" height="30" as="geometry" />
        </mxCell>
        <mxCell id="29xvhFVCt6-CDgxXpiSG-30" value="&lt;font style=&quot;font-size: 28px;&quot;&gt;...&lt;/font&gt;" style="rounded=1;whiteSpace=wrap;html=1;fillColor=#6DB5A8;fontColor=#F8F8F8;strokeColor=default;" parent="1" vertex="1">
          <mxGeometry x="744" y="132" width="64" height="38" as="geometry" />
        </mxCell>
        <mxCell id="29xvhFVCt6-CDgxXpiSG-31" value="&lt;font style=&quot;font-size: 17px;&quot;&gt;...&lt;/font&gt;" style="text;html=1;strokeColor=none;fillColor=none;align=center;verticalAlign=middle;whiteSpace=wrap;rounded=0;fontColor=#EA6B66;" parent="1" vertex="1">
          <mxGeometry x="746" y="174.25" width="60" height="30" as="geometry" />
        </mxCell>
        <mxCell id="29xvhFVCt6-CDgxXpiSG-32" value="&lt;font style=&quot;font-size: 28px;&quot;&gt;...&lt;/font&gt;" style="rounded=1;whiteSpace=wrap;html=1;fillColor=#6DB5A8;fontColor=#F8F8F8;strokeColor=default;" parent="1" vertex="1">
          <mxGeometry x="808" y="132" width="64" height="38" as="geometry" />
        </mxCell>
        <mxCell id="29xvhFVCt6-CDgxXpiSG-33" value="&lt;font style=&quot;font-size: 17px;&quot;&gt;...&lt;/font&gt;" style="text;html=1;strokeColor=none;fillColor=none;align=center;verticalAlign=middle;whiteSpace=wrap;rounded=0;fontColor=#EA6B66;" parent="1" vertex="1">
          <mxGeometry x="810" y="174.25" width="60" height="30" as="geometry" />
        </mxCell>
        <mxCell id="ZSMxuf6t_GAMlq6oe9wS-3" value="&lt;font style=&quot;font-size: 26px;&quot;&gt;长度&lt;/font&gt;" style="rounded=1;whiteSpace=wrap;html=1;fillColor=#F19C99;" vertex="1" parent="1">
          <mxGeometry x="184" y="329" width="120" height="60" as="geometry" />
        </mxCell>
        <mxCell id="ZSMxuf6t_GAMlq6oe9wS-4" value="&lt;font style=&quot;font-size: 26px;&quot;&gt;时间戳&lt;/font&gt;" style="rounded=1;whiteSpace=wrap;html=1;fillColor=#FBD473;" vertex="1" parent="1">
          <mxGeometry x="304" y="329" width="120" height="60" as="geometry" />
        </mxCell>
        <mxCell id="ZSMxuf6t_GAMlq6oe9wS-5" value="&lt;font style=&quot;font-size: 26px;&quot;&gt;key hash&lt;/font&gt;" style="rounded=1;whiteSpace=wrap;html=1;fillColor=#FBD473;" vertex="1" parent="1">
          <mxGeometry x="424" y="329" width="120" height="60" as="geometry" />
        </mxCell>
        <mxCell id="ZSMxuf6t_GAMlq6oe9wS-6" value="&lt;font style=&quot;font-size: 26px;&quot;&gt;key 长度&lt;/font&gt;" style="rounded=1;whiteSpace=wrap;html=1;fillColor=#FBD473;" vertex="1" parent="1">
          <mxGeometry x="544" y="329" width="120" height="60" as="geometry" />
        </mxCell>
        <mxCell id="ZSMxuf6t_GAMlq6oe9wS-7" value="&lt;font style=&quot;font-size: 26px;&quot;&gt;key&lt;/font&gt;" style="rounded=1;whiteSpace=wrap;html=1;fillColor=#9AC7BF;" vertex="1" parent="1">
          <mxGeometry x="664" y="329" width="120" height="60" as="geometry" />
        </mxCell>
        <mxCell id="ZSMxuf6t_GAMlq6oe9wS-8" value="&lt;font style=&quot;font-size: 26px;&quot;&gt;value&lt;/font&gt;" style="rounded=1;whiteSpace=wrap;html=1;fillColor=#9AC7BF;" vertex="1" parent="1">
          <mxGeometry x="784" y="329" width="120" height="60" as="geometry" />
        </mxCell>
        <mxCell id="ZSMxuf6t_GAMlq6oe9wS-9" value="" style="shape=curlyBracket;whiteSpace=wrap;html=1;rounded=1;labelPosition=left;verticalLabelPosition=middle;align=right;verticalAlign=middle;rotation=-90;strokeColor=#C7A85B;strokeWidth=3;" vertex="1" parent="1">
          <mxGeometry x="474" y="232" width="20" height="357" as="geometry" />
        </mxCell>
        <mxCell id="ZSMxuf6t_GAMlq6oe9wS-10" value="&lt;span style=&quot;font-size: 23px;&quot;&gt;&lt;font color=&quot;#c7a85b&quot;&gt;固定长度的Header&lt;/font&gt;&lt;/span&gt;" style="text;html=1;strokeColor=none;fillColor=none;align=center;verticalAlign=middle;whiteSpace=wrap;rounded=0;" vertex="1" parent="1">
          <mxGeometry x="365" y="432" width="231" height="30" as="geometry" />
        </mxCell>
        <mxCell id="ZSMxuf6t_GAMlq6oe9wS-13" value="" style="shape=curlyBracket;whiteSpace=wrap;html=1;rounded=1;labelPosition=left;verticalLabelPosition=middle;align=right;verticalAlign=middle;rotation=-90;strokeColor=#4A909B;strokeWidth=3;" vertex="1" parent="1">
          <mxGeometry x="773" y="293" width="20" height="235" as="geometry" />
        </mxCell>
        <mxCell id="ZSMxuf6t_GAMlq6oe9wS-14" value="&lt;span style=&quot;font-size: 23px;&quot;&gt;&lt;font color=&quot;#4a909b&quot;&gt;不固定长度的Data&lt;/font&gt;&lt;/span&gt;" style="text;html=1;strokeColor=none;fillColor=none;align=center;verticalAlign=middle;whiteSpace=wrap;rounded=0;" vertex="1" parent="1">
          <mxGeometry x="664" y="432" width="231" height="30" as="geometry" />
        </mxCell>
      </root>
    </mxGraphModel>
  </diagram>
</mxfile>
